<?xml version="1.0" encoding="utf-8"?>
<!-- Generator: Adobe Illustrator 22.1.0, SVG Export Plug-In . SVG Version: 6.00 Build 0)  -->
<svg version="1.1" id="Layer_1" xmlns="http://www.w3.org/2000/svg" xmlns:xlink="http://www.w3.org/1999/xlink" x="0px" y="0px"
	 viewBox="0 0 612 792" style="enable-background:new 0 0 612 792;" xml:space="preserve">
<style type="text/css">
	.st0{fill:#FFFFFF;}
</style>
<g>
	<path d="M316,509c-5.7,0-11.3,0-17,0c-1.1-0.3-2.2-0.7-3.4-0.8c-16.3-1.3-31.5-6.3-45.8-14.1c-39.7-21.8-60.2-64.6-50.8-107.1
		c5.2-23.6,18.1-42.5,37.5-57.1c-1.4-4.1,0.2-7.4,4.1-9.2c5.4-2.5,10.8-5.6,16.6-6.5c10.2-1.7,20.6-2,31.6-2.9
		c0-3.5,0.3-8.1-0.1-12.7c-0.6-6.5,1.9-11.2,7.3-14.6c5,0,10,0,15,0c5.9,3,8,8,7.7,14.4c-0.2,4.1,0,8.2,0,12.5
		c21.9-4,33.8-2,50.1,8.1c1.6,1,3.1,2.4,4.4,3.9c2.3,2.6,4.1,5.8,6.8,7.9c31,24.3,45.2,63.7,34.9,100.5c-10.6,38-36.9,61-73.7,72.6
		C333.1,506.5,324.4,507.3,316,509z M287.9,355.4c-0.6-0.1-1.3-0.2-1.9-0.1c-1,0.1-2,0.4-2.9,0.6c-10,2-17.9,7.8-25.6,13.9
		c-2.9,2.3-6.1,2.8-9.1,0.5c-3.1-2.4-3.2-5.7-1.7-9c1.6-3.3,3.1-6.7,5.3-9.6c4.8-6.2,10.1-12.1,16-19.1c-10.3,2.3-19.9,4.4-29.5,6.6
		c-0.7,0.2-1.4,0.8-2,1.4c-38.6,33.9-42.5,88.9-7.9,126.4c34.8,37.6,92.7,45.1,136.2,17.9c25.4-15.9,41.7-38.3,44.8-68.5
		c3.1-30.8-8.6-56.3-31.8-76.6c-8-7-22.7-9.1-33.1-4.8c1,0.8,1.9,1.5,2.8,2.2c7,5.8,12.1,12.8,14.1,21.8c0.3,1.3,0.9,2.8,0.5,3.9
		c-1,2.4-2.2,5.8-4.1,6.5c-2.2,0.8-6-0.1-7.9-1.7c-8.1-6.7-17.1-10.5-27.3-11.3c-0.4,0.5-0.6,0.6-0.6,0.8c-0.1,1.2-0.2,2.3-0.3,3.5
		c-1,15.2-4.7,29.5-13.4,42.3c-4,5.9-10.3,5.7-13.3-0.8c-2-4.3-3.6-9.1-4.2-13.8C289.7,377.4,289,366.6,287.9,355.4z M253.4,323.8
		c6,0.6,11.6,1.1,17.2,1.9c3.6,0.5,6.9,1.7,7.7,5.9c0.9,4.2-1.5,6.4-4.6,8.5c-6.8,4.8-12.3,10.8-16.8,19.3c3.3-2,5.5-3.5,7.7-4.8
		c7.4-4.3,15.1-7.7,23.9-7.6c5.6,0.1,8.2,2.8,8.4,8.3c0.1,5.2-0.3,10.4,0.3,15.5c0.9,8.6,2.3,17.2,3.6,25.8c0.6,0,1.2,0,1.8,0
		c1.1-2,2.3-3.9,3.3-5.9c5.4-10.8,7.5-22.3,7.8-34.2c0.2-6.9,2.2-8.8,9.2-8.5c1.8,0.1,3.7,0.1,5.4,0.7c8.2,2.8,16.3,5.8,24,8.6
		c0.1,0.2-0.1-0.8-0.5-1.6c-3.2-6.7-8.4-11.3-14.3-15.7c-2.1-1.6-3.9-5-4.1-7.6c-0.2-3.5,3-5.2,6.5-5.7c1.2-0.2,2.3-0.5,3.4-0.6
		c5.6-0.6,11.2-1.1,16.9-1.6c-12.3-7-25-10.1-38.7-5.1c-7.1,2.6-10.9,0-11.1-7.6c-0.1-3.7,0-7.3,0-11c0-8.6-0.1-8.6-8.6-8.5
		c-3.7,0-5,1.5-4.9,5.1c0.2,5.2,0.1,10.3,0,15.5c-0.1,6.8-2.9,9.2-9.8,8.4c-1.2-0.1-2.3-0.4-3.5-0.6
		C273.4,319.3,263.3,320.1,253.4,323.8z"/>
	<path class="st0" d="M316,509c8.4-1.7,17.1-2.5,25.3-5.1c36.8-11.6,63.1-34.6,73.7-72.6c10.3-36.8-3.9-76.2-34.9-100.5
		c-2.7-2.1-4.5-5.4-6.8-7.9c-1.3-1.4-2.8-2.8-4.4-3.9c-16.3-10.1-28.2-12-50.1-8.1c0-4.2-0.1-8.3,0-12.5c0.2-6.4-1.8-11.4-7.7-14.4
		c36.3,0,72.7,0,109,0c0,75,0,150,0,225C385.3,509,350.7,509,316,509z"/>
	<path class="st0" d="M296,284c-5.4,3.4-7.8,8.1-7.3,14.6c0.4,4.6,0.1,9.3,0.1,12.7c-10.9,0.9-21.4,1.2-31.6,2.9
		c-5.7,0.9-11.2,4-16.6,6.5c-3.9,1.8-5.6,5.1-4.1,9.2c-19.4,14.6-32.3,33.5-37.5,57.1c-9.4,42.5,11.1,85.3,50.8,107.1
		c14.3,7.9,29.5,12.8,45.8,14.1c1.1,0.1,2.2,0.5,3.4,0.8c-34.6,0-69.3,0-103.9,0c0-75,0-150,0-225C228.7,284,262.4,284,296,284z"/>
	<path class="st0" d="M287.9,355.4c1,11.3,1.7,22.1,3.1,32.7c0.6,4.7,2.2,9.4,4.2,13.8c3,6.4,9.2,6.7,13.3,0.8
		c8.6-12.8,12.4-27.1,13.4-42.3c0.1-1.2,0.2-2.3,0.3-3.5c0-0.1,0.2-0.3,0.6-0.8c10.2,0.8,19.2,4.7,27.3,11.3
		c1.9,1.6,5.7,2.5,7.9,1.7c1.9-0.7,3.1-4.1,4.1-6.5c0.4-1-0.2-2.6-0.5-3.9c-2-9-7.1-16-14.1-21.8c-0.9-0.7-1.8-1.4-2.8-2.2
		c10.4-4.2,25.1-2.2,33.1,4.8c23.2,20.3,34.9,45.7,31.8,76.6c-3.1,30.2-19.4,52.6-44.8,68.5c-43.5,27.1-101.4,19.7-136.2-17.9
		c-34.6-37.5-30.7-92.5,7.9-126.4c0.6-0.5,1.3-1.2,2-1.4c9.6-2.2,19.2-4.3,29.5-6.6c-5.9,7-11.1,12.9-16,19.1
		c-2.2,2.9-3.7,6.3-5.3,9.6c-1.6,3.3-1.5,6.6,1.7,9c3.1,2.4,6.2,1.8,9.1-0.5c7.8-6,15.7-11.9,25.6-13.9c1-0.2,1.9-0.5,2.9-0.6
		C286.7,355.1,287.3,355.3,287.9,355.4z M212.9,413.9c2.4,6,4.2,11.5,6.8,16.6c0.7,1.4,3.7,1.5,5.7,2.3c0.4-2,1.6-4.3,1.2-6.1
		c-1.1-4.6-2.7-9.2-4.7-13.5c-0.8-1.7-3.1-3.4-4.8-3.5C215.9,409.5,214.5,412.2,212.9,413.9z M213.7,395.4c1.2,1.3,2.5,3.8,4.3,4.2
		c1.1,0.3,3.8-2.2,4.4-3.9c1.4-4.2,2.3-8.6,2.7-13c0.2-1.8-1.5-3.7-2.3-5.6c-1.8,1.1-4.6,1.8-5.1,3.3
		C216,384.8,215.2,389.5,213.7,395.4z"/>
	<path class="st0" d="M253.4,323.8c9.9-3.7,20-4.5,30.3-3.3c1.2,0.1,2.3,0.4,3.5,0.6c6.8,0.8,9.7-1.6,9.8-8.4
		c0.1-5.2,0.1-10.3,0-15.5c-0.1-3.6,1.2-5,4.9-5.1c8.5-0.1,8.6-0.1,8.6,8.5c0,3.7-0.1,7.3,0,11c0.1,7.6,4,10.2,11.1,7.6
		c13.7-5,26.4-1.9,38.7,5.1c-5.6,0.5-11.2,1-16.9,1.6c-1.2,0.1-2.3,0.4-3.4,0.6c-3.5,0.5-6.6,2.3-6.5,5.7c0.1,2.7,1.9,6.1,4.1,7.6
		c5.9,4.3,11.1,9,14.3,15.7c0.4,0.8,0.6,1.8,0.5,1.6c-7.7-2.8-15.8-5.8-24-8.6c-1.7-0.6-3.6-0.6-5.4-0.7c-7-0.3-9,1.6-9.2,8.5
		c-0.3,11.9-2.4,23.5-7.8,34.2c-1,2-2.2,4-3.3,5.9c-0.6,0-1.2,0-1.8,0c-1.2-8.6-2.7-17.2-3.6-25.8c-0.5-5.1-0.1-10.3-0.3-15.5
		c-0.2-5.6-2.8-8.2-8.4-8.3c-8.8-0.2-16.5,3.2-23.9,7.6c-2.3,1.3-4.4,2.8-7.7,4.8c4.5-8.4,10-14.4,16.8-19.3c3-2.2,5.5-4.4,4.6-8.5
		c-0.9-4.2-4.1-5.4-7.7-5.9C265,324.9,259.4,324.5,253.4,323.8z"/>
	<path d="M212.9,413.9c1.6-1.7,3-4.3,4.1-4.2c1.7,0.1,4,1.9,4.8,3.5c2,4.3,3.6,8.9,4.7,13.5c0.4,1.8-0.7,4.1-1.2,6.1
		c-1.9-0.7-5-0.9-5.7-2.3C217.1,425.4,215.3,419.9,212.9,413.9z"/>
	<path d="M213.7,395.4c1.4-5.9,2.2-10.6,3.9-15.1c0.6-1.5,3.4-2.2,5.1-3.3c0.8,1.9,2.5,3.8,2.3,5.6c-0.4,4.4-1.3,8.8-2.7,13
		c-0.6,1.7-3.2,4.2-4.4,3.9C216.2,399.2,215,396.7,213.7,395.4z"/>
</g>
</svg>
